<svg xmlns="http://www.w3.org/2000/svg" viewBox="0 0 256 256">
<rect width="256" height="256" fill="#0a1628"/>
<path d="M128 60c-35 0-60 15-60 35v15c0 8 3 15 8 20l-8 45c-2 10 5 18 15 18h10v25c0 8 7 15 15 15h60c8 0 15-7 15-15v-25h10c10 0 17-8 15-18l-8-45c5-5 8-12 8-20V95c0-20-25-35-60-35z" fill="#d4a024"/>
<ellipse cx="128" cy="95" rx="55" ry="25" fill="#f4c542"/>
<path d="M75 95v15c0 5 2 10 5 13l-7 42h25v-30c0-8 7-15 15-15h30c8 0 15 7 15 15v30h25l-7-42c3-3 5-8 5-13V95c0-12-20-22-45-22s-45 10-45 22z" fill="#0a1628" opacity="0.15"/>
<circle cx="105" cy="100" r="4" fill="#0a1628"/>
<circle cx="151" cy="100" r="4" fill="#0a1628"/>
<path d="M40 95c-8-15-10-25-5-30 8-8 25 5 25 15M216 95c8-15 10-25 5-30-8-8-25 5-25 15" fill="#d4a024"/>
<ellipse cx="35" cy="75" rx="8" ry="12" fill="#f4c542"/>
<ellipse cx="221" cy="75" rx="8" ry="12" fill="#f4c542"/>
</svg>